<svg width="55" height="65" viewBox="0 0 55 65" fill="none" xmlns="http://www.w3.org/2000/svg">
<path d="M40.9621 0.0325283C40.8182 -0.121846 35.6355 0.0934654 31.1255 4.79375C26.6155 9.48998 27.3094 14.8768 27.4109 15.015C27.5124 15.1531 33.8417 15.3684 37.8821 9.90435C41.9225 4.44032 41.1059 0.190965 40.9621 0.0325283ZM54.9829 47.6976C54.7798 47.3076 45.1463 42.6845 46.0433 33.7958C46.9402 24.903 53.1298 22.4655 53.2271 22.2015C53.3244 21.9374 50.7013 18.9921 47.9217 17.5012C45.8809 16.45 43.6221 15.8478 41.309 15.7381C40.8521 15.7259 39.2655 15.3521 36.0036 16.2093C33.8544 16.774 29.0101 18.6021 27.6774 18.6752C26.3405 18.7484 22.3636 16.5546 18.0863 15.9737C15.349 15.4659 12.4466 16.5059 10.3693 17.3062C8.29624 18.1024 4.35316 20.3693 1.59469 26.394C-1.16378 32.4146 0.278917 41.9533 1.31123 44.9189C2.34354 47.8804 3.95546 52.7351 6.69701 56.2776C9.13394 60.275 12.3663 63.0497 13.7159 63.9922C15.0655 64.9347 18.8732 65.5603 21.5132 64.2644C23.637 63.0131 27.4701 62.2941 28.9848 62.3469C30.4951 62.3997 33.4736 62.9725 36.524 64.5366C38.9398 65.3369 41.2244 65.0038 43.5133 64.11C45.8021 63.2122 49.1148 59.8078 52.9817 52.9057C54.4498 49.6963 55.1183 47.9617 54.9829 47.6976Z" fill="white"/>
</svg>
