<svg width="36" height="27" viewBox="0 0 36 27" fill="none" xmlns="http://www.w3.org/2000/svg">
<path d="M30.375 2.25C30.6734 2.25 30.9595 2.36853 31.1705 2.5795C31.3815 2.79048 31.5 3.07663 31.5 3.375V20.25H4.5V3.375C4.5 3.07663 4.61853 2.79048 4.8295 2.5795C5.04048 2.36853 5.32663 2.25 5.625 2.25H30.375ZM5.625 0C4.72989 0 3.87145 0.355579 3.23851 0.988515C2.60558 1.62145 2.25 2.47989 2.25 3.375V22.5H33.75V3.375C33.75 2.47989 33.3944 1.62145 32.7615 0.988515C32.1286 0.355579 31.2701 0 30.375 0H5.625ZM0 23.625H36C36 24.5201 35.6444 25.3786 35.0115 26.0115C34.3786 26.6444 33.5201 27 32.625 27H3.375C2.47989 27 1.62145 26.6444 0.988515 26.0115C0.355579 25.3786 0 24.5201 0 23.625H0Z" fill="#242424"/>
</svg>
