<svg width="36" height="34" viewBox="0 0 36 34" fill="none" xmlns="http://www.w3.org/2000/svg">
<g clip-path="url(#clip0_39_194)">
<path d="M27 2.125C27.5967 2.125 28.169 2.34888 28.591 2.7474C29.0129 3.14591 29.25 3.68641 29.25 4.25V29.75C29.25 30.3136 29.0129 30.8541 28.591 31.2526C28.169 31.6511 27.5967 31.875 27 31.875H9C8.40326 31.875 7.83097 31.6511 7.40901 31.2526C6.98705 30.8541 6.75 30.3136 6.75 29.75V4.25C6.75 3.68641 6.98705 3.14591 7.40901 2.7474C7.83097 2.34888 8.40326 2.125 9 2.125H27ZM9 0C7.80653 0 6.66193 0.447767 5.81802 1.2448C4.97411 2.04183 4.5 3.12283 4.5 4.25V29.75C4.5 30.8772 4.97411 31.9582 5.81802 32.7552C6.66193 33.5522 7.80653 34 9 34H27C28.1935 34 29.3381 33.5522 30.182 32.7552C31.0259 31.9582 31.5 30.8772 31.5 29.75V4.25C31.5 3.12283 31.0259 2.04183 30.182 1.2448C29.3381 0.447767 28.1935 0 27 0L9 0Z" fill="#242424"/>
<path d="M18 29.75C18.5967 29.75 19.169 29.5261 19.591 29.1276C20.0129 28.7291 20.25 28.1886 20.25 27.625C20.25 27.0614 20.0129 26.5209 19.591 26.1224C19.169 25.7239 18.5967 25.5 18 25.5C17.4033 25.5 16.831 25.7239 16.409 26.1224C15.9871 26.5209 15.75 27.0614 15.75 27.625C15.75 28.1886 15.9871 28.7291 16.409 29.1276C16.831 29.5261 17.4033 29.75 18 29.75Z" fill="#242424"/>
</g>
<defs>
<clipPath id="clip0_39_194">
<rect width="36" height="34" fill="white"/>
</clipPath>
</defs>
</svg>
