<svg width="60" height="60" viewBox="0 0 60 60" fill="none" xmlns="http://www.w3.org/2000/svg">
<g clip-path="url(#clip0_82_3)">
<path d="M30 56.25C23.0381 56.25 16.3613 53.4844 11.4384 48.5616C6.51562 43.6387 3.75 36.9619 3.75 30C3.75 23.0381 6.51562 16.3613 11.4384 11.4384C16.3613 6.51562 23.0381 3.75 30 3.75C36.9619 3.75 43.6387 6.51562 48.5616 11.4384C53.4844 16.3613 56.25 23.0381 56.25 30C56.25 36.9619 53.4844 43.6387 48.5616 48.5616C43.6387 53.4844 36.9619 56.25 30 56.25ZM30 60C37.9565 60 45.5871 56.8393 51.2132 51.2132C56.8393 45.5871 60 37.9565 60 30C60 22.0435 56.8393 14.4129 51.2132 8.7868C45.5871 3.16071 37.9565 0 30 0C22.0435 0 14.4129 3.16071 8.7868 8.7868C3.16071 14.4129 0 22.0435 0 30C0 37.9565 3.16071 45.5871 8.7868 51.2132C14.4129 56.8393 22.0435 60 30 60Z" fill="#242424"/>
<path d="M26.2576 41.25C26.2576 40.7576 26.3546 40.2699 26.543 39.8149C26.7315 39.36 27.0077 38.9466 27.3559 38.5984C27.7041 38.2501 28.1175 37.9739 28.5725 37.7855C29.0275 37.597 29.5151 37.5 30.0076 37.5C30.5 37.5 30.9877 37.597 31.4426 37.7855C31.8976 37.9739 32.311 38.2501 32.6592 38.5984C33.0074 38.9466 33.2837 39.36 33.4721 39.8149C33.6606 40.2699 33.7576 40.7576 33.7576 41.25C33.7576 42.2446 33.3625 43.1984 32.6592 43.9017C31.956 44.6049 31.0021 45 30.0076 45C29.013 45 28.0592 44.6049 27.3559 43.9017C26.6527 43.1984 26.2576 42.2446 26.2576 41.25ZM26.6251 18.7313C26.5751 18.2582 26.6252 17.7799 26.7721 17.3274C26.9189 16.8749 27.1593 16.4583 27.4775 16.1047C27.7958 15.7511 28.1848 15.4684 28.6194 15.2748C29.0539 15.0813 29.5243 14.9813 30.0001 14.9813C30.4758 14.9813 30.9462 15.0813 31.3808 15.2748C31.8154 15.4684 32.2044 15.7511 32.5226 16.1047C32.8409 16.4583 33.0812 16.8749 33.2281 17.3274C33.3749 17.7799 33.425 18.2582 33.3751 18.7313L32.0626 31.8825C32.0185 32.3992 31.7821 32.8804 31.4002 33.2311C31.0182 33.5819 30.5186 33.7765 30.0001 33.7765C29.4815 33.7765 28.9819 33.5819 28.6 33.2311C28.2181 32.8804 27.9817 32.3992 27.9376 31.8825L26.6251 18.7313Z" fill="#242424"/>
</g>
<defs>
<clipPath id="clip0_82_3">
<rect width="60" height="60" fill="white"/>
</clipPath>
</defs>
</svg>
