<svg width="28" height="28" viewBox="0 0 28 28" fill="none" xmlns="http://www.w3.org/2000/svg">
<path d="M7 2.91725V3.5875C6.01181 3.78921 5.12365 4.32616 4.48586 5.10746C3.84806 5.88876 3.49979 6.86643 3.5 7.875V20.125C3.49979 21.1336 3.84806 22.1112 4.48586 22.8925C5.12365 23.6738 6.01181 24.2108 7 24.4125V25.0828C7 26.6928 8.3055 28 9.91725 28H18.0828C19.6928 28 21 26.6945 21 25.0828V24.4125C21.9882 24.2108 22.8763 23.6738 23.5141 22.8925C24.1519 22.1112 24.5002 21.1336 24.5 20.125V14H25.375C25.6071 14 25.8296 13.9078 25.9937 13.7437C26.1578 13.5796 26.25 13.3571 26.25 13.125V9.625C26.25 9.39294 26.1578 9.17038 25.9937 9.00628C25.8296 8.84219 25.6071 8.75 25.375 8.75H24.5V7.875C24.5002 6.86643 24.1519 5.88876 23.5141 5.10746C22.8763 4.32616 21.9882 3.78921 21 3.5875V2.91725C21 1.30725 19.6945 0 18.0828 0H9.91725C8.30725 0 7 1.3055 7 2.91725ZM7.875 5.25H20.125C20.8212 5.25 21.4889 5.52656 21.9812 6.01884C22.4734 6.51113 22.75 7.17881 22.75 7.875V20.125C22.75 20.8212 22.4734 21.4889 21.9812 21.9812C21.4889 22.4734 20.8212 22.75 20.125 22.75H7.875C7.17881 22.75 6.51113 22.4734 6.01884 21.9812C5.52656 21.4889 5.25 20.8212 5.25 20.125V7.875C5.25 7.17881 5.52656 6.51113 6.01884 6.01884C6.51113 5.52656 7.17881 5.25 7.875 5.25Z" fill="#242424"/>
</svg>
